<?xml version="1.0" standalone="no"?><!DOCTYPE svg PUBLIC "-//W3C//DTD SVG 1.1//EN" "http://www.w3.org/Graphics/SVG/1.1/DTD/svg11.dtd"><svg t="1629106705930" class="icon" viewBox="0 0 1024 1024" version="1.1" xmlns="http://www.w3.org/2000/svg" p-id="1343" xmlns:xlink="http://www.w3.org/1999/xlink" width="200" height="200"><defs><style type="text/css"></style></defs><path d="M1021.69827555 512v2.00135111c2.85127111 284.13838222-226.92864 507.60021333-511.59950222 507.72195556-161.84888889 0.11377778-306.11342222-75.05351111-399.71043555-192.26624l-2.82055111-3.56465778 71.04967111-55.47690667c10.45504 13.39505778 21.86126222 26.07900445 33.97973333 38.28849778 38.61276445 38.52515555 83.64259555 68.87196445 133.66158222 89.97205333 51.80188445 21.92952889 106.81116445 32.95345778 163.60220445 32.95345778 56.79217778 0 111.91978667-11.02392889 163.48387555-32.95345778 50.01898667-21.10008889 95.04881778-51.44689778 133.66272-89.97205333 38.73223111-38.52515555 62.64604445-79.26101333 90.17685334-133.35665778 21.71107555-40.21361778 32.71907555-93.98044445 33.024-161.30275555l0.00568888-2.04458667h91.48416zM48.71168 660.70414222l0.28330667 0.06257778 186.29518222 45.40074667c7.62652445 1.87392 9.80764445 11.49383111 3.79335111 16.52736l-0.22983111 0.18659555L51.6096 868.80369778c-6.10759111 4.92202667-15.11651555 0.57685333-15.32359111-7.19530667l-0.00341334-0.27306666 0.95118223-191.44021334c0-5.95057778 5.63768889-10.40725333 11.47904-9.19096889zM513.90122667 2.27555555c163.48387555-0.11377778 309.02613333 76.58154667 402.53098666 195.83203556l-71.04967111 55.47690667c-10.45504-13.39505778-21.86126222-26.07900445-33.97973333-38.28849778-38.61276445-38.52515555-83.64259555-68.87196445-133.66158222-89.97205333-51.80188445-21.92952889-106.81116445-32.95345778-163.60220445-32.95345778-56.79217778 0-111.91978667 11.02392889-163.48387555 32.95345778-50.01898667 21.10008889-95.04881778 51.44689778-133.66272 89.97205333-38.73223111 38.52515555-62.64604445 79.26101333-90.17685334 133.35665778-21.93066667 40.61866667-32.93980445 95.06816-33.02968888 163.34734222H2.30172445v-2.00135111C-0.54954667 225.86026667 229.23036445 2.39843555 513.90122667 2.27669333z m458.49031111 152.92074667c6.17813333-4.97891555 15.32586667-0.47445333 15.32586667 7.46837333l-0.95004445 191.44021334c0 6.04615111-5.82087111 10.55061333-11.76234667 9.12839111l-186.29518222-45.40074667c-7.72209778-1.89667555-9.86112-11.73504-3.56352-16.71395555z" fill="#707070" p-id="1344"></path><path d="M548.98574222 238.93333333L749.79555555 727.04h-75.2173511l-53.77820445-133.60355555H401.27374222L350.56071111 727.04H275.34222222l200.80753778-488.10666667h72.83598222zM511.88622222 301.32906667h-1.70097777c-2.49856 14.70691555-5.33162667 26.04828445-8.50944 34.03093333l-78.95950223 202.92949333h176.98133333l-79.63989333-202.93063111c-2.49856-6.50922667-5.2224-17.85173333-8.17152-34.03093333z" fill="#707070" p-id="1345"></path></svg>