<?xml version="1.0" standalone="no"?><!DOCTYPE svg PUBLIC "-//W3C//DTD SVG 1.1//EN" "http://www.w3.org/Graphics/SVG/1.1/DTD/svg11.dtd"><svg t="1629106564342" class="icon" viewBox="0 0 1024 1024" version="1.1" xmlns="http://www.w3.org/2000/svg" p-id="1205" xmlns:xlink="http://www.w3.org/1999/xlink" width="200" height="200"><defs><style type="text/css"></style></defs><path d="M364.2112 577.28c-87.7312 0-158.8224-70.4512-158.8224-157.3632 0-86.8608 71.0912-157.2864 158.8224-157.2864 87.7056 0 158.8224 70.4256 158.8224 157.2864-0.0512 86.8864-71.1168 157.2864-158.7968 157.3632h-0.0256z m0-256.3328a100.0448 100.0448 0 0 0-92.4672 61.184 98.4064 98.4064 0 0 0 21.76 108.0064 100.6592 100.6592 0 0 0 109.056 21.4016 99.072 99.072 0 0 0 61.696-91.6224c-0.1024-54.656-44.8512-98.9184-100.0448-98.9696z" p-id="1206"></path><path d="M256.256 541.1328L307.2 512l112 276.736-50.9184 29.184-112-276.7872z m353.1008 242.176L460.8 515.4816 512 486.4l147.712 267.776c8.3968 14.336 14.2336 29.9776 17.2544 46.2848l-57.8304 10.496a85.6576 85.6576 0 0 0-9.7792-27.648zM509.5168 427.6992L467.968 386.56 660.48 195.584a65.152 65.152 0 0 0-2.688-90.112 66.7136 66.7136 0 0 0-90.9824-2.4064l-210.6368 208.6912-41.5744-41.1648 210.688-208.64a125.7984 125.7984 0 0 1 136.0896-26.9312 123.7504 123.7504 0 0 1 77.2096 114.2528 122.2656 122.2656 0 0 1-36.4544 87.3472l-192.6144 191.0784v0.0256z" p-id="1207"></path><path d="M884.9664 111.2832h-196.9664c-19.584 0-36.0448-13.0048-36.0448-29.1328 0-16.0768 16.128-29.1072 36.0448-29.1072h196.9664c19.584 0 36.0448 13.0304 36.0448 29.1072 0 16.128-16.1536 29.1328-36.0448 29.1328zM957.7984 1005.44H29.4144A29.2608 29.2608 0 0 1 0 976.3072C0 960.256 13.1584 947.2 29.4144 947.2h928.3328c16.2816 0 29.44 13.056 29.44 29.1072a29.2608 29.2608 0 0 1-29.3888 29.1328z" p-id="1208"></path><path d="M862.2336 209.5872v-100.352c0-10.3936 5.632-20.0192 14.72-25.1904a29.6448 29.6448 0 0 1 29.4144 0c9.0368 5.1712 14.6432 14.7968 14.6688 25.216v100.352c0 10.4192-5.632 20.0448-14.6688 25.216a29.6448 29.6448 0 0 1-29.44 0 29.0816 29.0816 0 0 1-14.6944-25.2416z" p-id="1209"></path><path d="M765.1584 281.7536c0-5.12 1.3312-10.1632 3.9168-14.592l48.9984-83.2512a29.44 29.44 0 0 1 25.4464-14.5664h97.1264c10.496 0 20.1984 5.5552 25.472 14.5664l48.9728 83.2512c5.2736 9.0112 5.2736 20.1472 0 29.1328l-48.9728 83.2512c-8.192 13.9776-26.112 18.7392-40.192 10.7008a28.9792 28.9792 0 0 1-10.752-39.7824l40.064-68.7104-31.5648-54.1952h-63.6928l-31.5392 54.1952 40.064 68.6848c5.2736 9.0368 5.2736 20.1216 0 29.1328-5.2992 9.0368-14.976 14.592-25.4464 14.5664-10.496 0-20.224-5.5296-25.4976-14.592l-48.9984-83.2512a28.9024 28.9024 0 0 1-3.4048-14.5408z m-423.1168 138.1632c0 7.8336 4.224 15.0784 11.1104 18.9952a22.3488 22.3488 0 0 0 22.144 0 21.9136 21.9136 0 0 0 0-37.9648 22.3232 22.3232 0 0 0-22.144 0 21.9136 21.9136 0 0 0-11.1104 18.9696zM888.704 960.9728H829.952c-0.128-77.9008-63.8976-141.0048-142.4896-141.1072H299.7248a143.36 143.36 0 0 0-101.0176 41.216 140.6208 140.6208 0 0 0-41.9328 99.8912H97.9968c0.1536-110.208 90.4448-199.424 201.728-199.3216h387.7376c111.104 0.1536 201.088 89.3184 201.2672 199.3216h-0.0256z" p-id="1210"></path></svg>