<?xml version="1.0" standalone="no"?><!DOCTYPE svg PUBLIC "-//W3C//DTD SVG 1.1//EN" "http://www.w3.org/Graphics/SVG/1.1/DTD/svg11.dtd"><svg t="1629106747420" class="icon" viewBox="0 0 1024 1024" version="1.1" xmlns="http://www.w3.org/2000/svg" p-id="1478" xmlns:xlink="http://www.w3.org/1999/xlink" width="200" height="200"><defs><style type="text/css"></style></defs><path d="M834.048 968.192H185.856c-13.824 0-25.088-11.264-25.088-25.088V81.408c0-13.824 11.264-25.088 25.088-25.088h648.192c13.824 0 25.088 11.264 25.088 25.088v861.184c0 14.336-11.264 25.6-25.088 25.6z m-623.104-50.688h597.504V107.008H210.944v810.496z" p-id="1479"></path><path d="M718.848 724.48H300.544c-13.824 0-25.088-11.264-25.088-25.088V204.8c0-13.824 11.264-25.088 25.088-25.088h417.792c13.824 0 25.088 11.264 25.088 25.088v494.592c0.512 13.824-10.752 25.088-24.576 25.088z m-392.704-50.176H693.76V230.4H326.144v443.904zM459.776 818.688a50.176 50.176 0 1 0 100.352 0 50.176 50.176 0 1 0-100.352 0z" p-id="1480"></path></svg>