<?xml version="1.0" standalone="no"?><!DOCTYPE svg PUBLIC "-//W3C//DTD SVG 1.1//EN" "http://www.w3.org/Graphics/SVG/1.1/DTD/svg11.dtd"><svg t="1629106759581" class="icon" viewBox="0 0 1024 1024" version="1.1" xmlns="http://www.w3.org/2000/svg" p-id="1607" xmlns:xlink="http://www.w3.org/1999/xlink" width="200" height="200"><defs><style type="text/css"></style></defs><path d="M556.18871 332.697705a133.83676 133.83676 0 0 1 20.479994 1.536 126.361562 126.361562 0 0 1 106.291168 122.879963v47.411185l42.700787 13.721596A56.934383 56.934383 0 0 1 765.187047 573.440033a56.934383 56.934383 0 0 1-56.115183 56.319983H345.347173a85.606374 85.606374 0 1 1 0-171.212749h27.750392l48.025586 4.505599 15.769595-45.567986a126.361562 126.361562 0 0 1 119.295964-84.889575m0-61.439982A187.903944 187.903944 0 0 0 379.343963 397.516886c-4.095999 0-8.294398-0.6144-12.390396-0.6144s-8.294398 0-12.390396 0.6144-5.836798 0-8.703998 0a147.046356 147.046356 0 1 0 0 294.092711h363.724691a118.681564 118.681564 0 0 0 117.043165-117.657564 118.783964 118.783964 0 0 0-82.534375-114.380766v-3.071999a187.903944 187.903944 0 0 0-158.003153-182.886345 185.753544 185.753544 0 0 0-29.900791-2.3552z" fill="#333333" p-id="1608"></path><path d="M512.463923 1023.999898a513.945446 513.945446 0 0 1-143.974357-20.479994 30.719991 30.719991 0 0 1 17.203195-58.982383 450.559865 450.559865 0 0 0 409.599877-783.462165 30.719991 30.719991 0 0 1 38.502389-47.923185A511.999846 511.999846 0 0 1 512.463923 1023.999898zM197.481618 906.649533a30.719991 30.719991 0 0 1-20.479994-7.475198A511.999846 511.999846 0 0 1 512.463923 0.000205a518.963044 518.963044 0 0 1 126.361562 15.667195 30.719991 30.719991 0 0 1-15.155195 59.596782A450.559865 450.559865 0 0 0 217.552012 852.684749a30.719991 30.719991 0 0 1-20.479994 53.964784z" fill="#333333" p-id="1609"></path><path d="M801.436637 295.424116a30.719991 30.719991 0 0 1-30.719991-30.719991v-143.359957a30.719991 30.719991 0 0 1 30.719991-30.71999h143.359957a30.719991 30.719991 0 0 1 0 61.439981h-112.639967v112.639966a30.719991 30.719991 0 0 1-30.71999 30.719991zM238.236805 940.543923h-143.359957a30.719991 30.719991 0 1 1 0-61.439982h112.639967v-112.639966a30.719991 30.719991 0 0 1 61.439981 0v143.359957a30.719991 30.719991 0 0 1-30.719991 30.719991z" fill="#3A3A3A" p-id="1610"></path></svg>